<?xml version="1.0" encoding="UTF-8" standalone="no"?>
<svg
   xmlns:dc="http://purl.org/dc/elements/1.1/"
   xmlns:cc="http://creativecommons.org/ns#"
   xmlns:rdf="http://www.w3.org/1999/02/22-rdf-syntax-ns#"
   xmlns:svg="http://www.w3.org/2000/svg"
   xmlns="http://www.w3.org/2000/svg"
   xmlns:sodipodi="http://sodipodi.sourceforge.net/DTD/sodipodi-0.dtd"
   xmlns:inkscape="http://www.inkscape.org/namespaces/inkscape"
   viewBox="0 0 327.19891 400"
   height="400"
   width="327.19891"
   xml:space="preserve"
   version="1.1"
   id="svg2"
   inkscape:version="0.91 r13725"
   sodipodi:docname="makerspace.svg"><sodipodi:namedview
     pagecolor="#ffffff"
     bordercolor="#666666"
     borderopacity="1"
     objecttolerance="10"
     gridtolerance="10"
     guidetolerance="10"
     inkscape:pageopacity="0"
     inkscape:pageshadow="2"
     inkscape:window-width="743"
     inkscape:window-height="480"
     id="namedview41"
     showgrid="false"
     inkscape:zoom="0.59"
     inkscape:cx="163.59946"
     inkscape:cy="200"
     inkscape:window-x="0"
     inkscape:window-y="27"
     inkscape:window-maximized="0"
     inkscape:current-layer="svg2" /><metadata
     id="metadata8"><rdf:RDF><cc:Work
         rdf:about=""><dc:format>image/svg+xml</dc:format><dc:type
           rdf:resource="http://purl.org/dc/dcmitype/StillImage" /><dc:title></dc:title></cc:Work></rdf:RDF></metadata><defs
     id="defs6"><clipPath
       id="clipPath16"
       clipPathUnits="userSpaceOnUse"><path
         id="path18"
         d="M 0,792 612,792 612,0 0,0 0,792 Z" /></clipPath></defs><g
     transform="matrix(1.25,0,0,-1.25,-257.98687,825.39233)"
     id="g10"><g
       transform="matrix(1.8261671,0,0,1.8261671,-278.64063,-413.3429)"
       id="g3868"><g
         id="g3855"
         transform="translate(-17.5552,0)"><g
           id="g3835"><path
             id="path30"
             style="fill:#4f4c4d;fill-opacity:1;fill-rule:nonzero;stroke:none"
             d="m 341.36668,536.93379 c -8.002,1.915 -12.938,9.952 -11.025,17.952 1.913,8.001 9.949,12.937 17.949,11.024 8.004,-1.913 12.939,-9.951 11.026,-17.951 -1.914,-8.001 -9.95,-12.936 -17.95,-11.025 m 25.46,8.792 c 0.035,0.14 0.071,0.274 0.104,0.414 0.388,1.622 0.589,3.248 0.623,4.85 l -4.36,1.554 c -0.032,0.518 -0.089,1.033 -0.163,1.544 l 3.896,2.656 c -0.412,1.699 -1.016,3.337 -1.793,4.886 l -4.587,-0.651 c -0.304,0.495 -0.63,0.979 -0.978,1.449 l 2.205,4.137 c -1.134,1.274 -2.414,2.421 -3.824,3.417 l -3.768,-2.715 c -0.53,0.314 -1.083,0.603 -1.651,0.863 l 0.028,4.664 c -0.792,0.284 -1.608,0.532 -2.448,0.731 -0.836,0.2 -1.676,0.348 -2.512,0.453 l -2.084,-4.169 c -0.625,0.022 -1.246,0.015 -1.863,-0.026 l -2.133,4.129 c -1.708,-0.254 -3.369,-0.7 -4.955,-1.32 l 0.096,-4.688 c -0.523,-0.262 -1.033,-0.545 -1.529,-0.851 l -3.794,2.653 c -1.395,-1.029 -2.675,-2.214 -3.812,-3.545 l 2.278,-4.129 c -0.299,-0.423 -0.582,-0.856 -0.846,-1.306 l -4.59,0.587 c -0.696,-1.443 -1.252,-2.983 -1.639,-4.607 -0.033,-0.137 -0.062,-0.277 -0.094,-0.415 l 3.94,-2.604 c -0.054,-0.439 -0.09,-0.876 -0.113,-1.31 l -4.35,-1.623 c 0.053,-1.831 0.327,-3.632 0.807,-5.363 l 4.703,-0.473 c 0.13,-0.342 0.273,-0.679 0.422,-1.014 l -3.107,-3.462 c 0.89,-1.614 1.976,-3.116 3.232,-4.471 l 4.372,1.759 c 0.235,-0.213 0.475,-0.416 0.723,-0.614 l -1.148,-4.533 c 1.52,-1.025 3.181,-1.878 4.963,-2.523 l 3.048,3.584 c 0.143,-0.036 0.282,-0.077 0.427,-0.112 0.143,-0.035 0.288,-0.062 0.431,-0.092 l 1.098,-4.575 c 1.882,-0.231 3.748,-0.223 5.566,0.004 l 1.029,4.561 c 0.308,0.067 0.616,0.14 0.919,0.223 l 3.105,-3.55 c 1.734,0.643 3.38,1.491 4.903,2.527 l -1.204,4.496 c 0.285,0.23 0.565,0.465 0.836,0.714 l 4.411,-1.704 c 1.208,1.327 2.267,2.807 3.143,4.418 l -3.148,3.411 c 0.178,0.398 0.342,0.804 0.493,1.224 l 4.692,0.537 z" /><path
             id="path34"
             style="fill:#4f4c4d;fill-opacity:1;fill-rule:nonzero;stroke:none"
             d="m 367.35498,513.72189 c -5.42,1.298 -8.764,6.742 -7.469,12.162 1.297,5.42 6.74,8.764 12.16,7.469 5.423,-1.297 8.767,-6.742 7.471,-12.162 -1.297,-5.42 -6.741,-8.764 -12.162,-7.469 m 17.249,5.956 c 0.024,0.095 0.049,0.187 0.071,0.28 0.263,1.1 0.399,2.202 0.421,3.286 l -2.953,1.054 c -0.021,0.35 -0.059,0.698 -0.11,1.045 l 2.638,1.8 c -0.278,1.15 -0.687,2.261 -1.213,3.309 l -3.108,-0.441 c -0.207,0.336 -0.428,0.664 -0.662,0.982 l 1.493,2.803 c -0.768,0.864 -1.635,1.64 -2.591,2.316 l -2.552,-1.84 c -0.359,0.213 -0.734,0.408 -1.119,0.585 l 0.02,3.159 c -0.537,0.192 -1.091,0.36 -1.658,0.495 -0.568,0.136 -1.136,0.236 -1.702,0.307 l -1.412,-2.825 c -0.424,0.016 -0.845,0.011 -1.262,-0.017 l -1.446,2.797 c -1.157,-0.172 -2.282,-0.474 -3.356,-0.894 l 0.064,-3.176 c -0.354,-0.177 -0.7,-0.369 -1.036,-0.576 l -2.571,1.798 c -0.944,-0.698 -1.81,-1.501 -2.581,-2.403 l 1.543,-2.797 c -0.203,-0.286 -0.395,-0.58 -0.573,-0.885 l -3.111,0.399 c -0.47,-0.978 -0.847,-2.022 -1.109,-3.121 -0.022,-0.094 -0.042,-0.188 -0.064,-0.282 l 2.669,-1.764 c -0.036,-0.298 -0.061,-0.593 -0.076,-0.887 l -2.947,-1.1 c 0.035,-1.241 0.222,-2.461 0.546,-3.634 l 3.186,-0.32 c 0.088,-0.231 0.186,-0.46 0.287,-0.687 l -2.105,-2.345 c 0.603,-1.094 1.339,-2.111 2.189,-3.029 l 2.962,1.191 c 0.16,-0.143 0.322,-0.282 0.49,-0.416 l -0.777,-3.07 c 1.03,-0.696 2.154,-1.272 3.361,-1.71 l 2.065,2.428 c 0.097,-0.025 0.192,-0.052 0.288,-0.076 0.099,-0.023 0.197,-0.042 0.294,-0.062 l 0.743,-3.1 c 1.275,-0.156 2.54,-0.15 3.771,0.003 l 0.697,3.09 c 0.209,0.046 0.417,0.095 0.623,0.151 l 2.103,-2.405 c 1.175,0.436 2.29,1.011 3.322,1.713 l -0.815,3.045 c 0.193,0.156 0.382,0.315 0.566,0.484 l 2.988,-1.155 c 0.819,0.899 1.535,1.902 2.129,2.993 l -2.132,2.312 c 0.12,0.268 0.232,0.544 0.333,0.829 l 3.179,0.363 z" /><path
             id="path38"
             style="fill:#4f4c4d;fill-opacity:1;fill-rule:nonzero;stroke:none"
             d="m 377.58538,542.19459 c -3.785,0.907 -6.119,4.706 -5.215,8.492 0.906,3.783 4.705,6.116 8.489,5.214 3.787,-0.905 6.12,-4.707 5.216,-8.492 -0.906,-3.782 -4.706,-6.116 -8.49,-5.214 m 12.04,4.159 c 0.018,0.068 0.035,0.13 0.05,0.195 0.184,0.768 0.279,1.538 0.295,2.294 l -2.063,0.736 c -0.013,0.244 -0.041,0.486 -0.076,0.729 l 1.842,1.257 c -0.195,0.804 -0.481,1.578 -0.848,2.31 l -2.17,-0.308 c -0.144,0.235 -0.298,0.464 -0.461,0.687 l 1.041,1.955 c -0.536,0.603 -1.14,1.144 -1.808,1.617 l -1.781,-1.283 c -0.25,0.147 -0.512,0.284 -0.781,0.406 l 0.013,2.207 c -0.374,0.136 -0.76,0.251 -1.157,0.346 -0.398,0.094 -0.792,0.163 -1.189,0.213 l -0.986,-1.971 c -0.295,0.011 -0.59,0.006 -0.879,-0.013 l -1.01,1.953 c -0.808,-0.122 -1.593,-0.33 -2.343,-0.624 l 0.044,-2.217 c -0.247,-0.126 -0.488,-0.256 -0.722,-0.403 l -1.795,1.256 c -0.66,-0.488 -1.266,-1.047 -1.803,-1.678 l 1.078,-1.952 c -0.142,-0.201 -0.275,-0.404 -0.4,-0.618 l -2.172,0.279 c -0.328,-0.683 -0.592,-1.413 -0.774,-2.179 -0.017,-0.065 -0.029,-0.131 -0.044,-0.198 l 1.863,-1.231 c -0.025,-0.207 -0.043,-0.414 -0.053,-0.618 l -2.057,-0.77 c 0.024,-0.865 0.153,-1.716 0.379,-2.536 l 2.225,-0.223 c 0.063,-0.162 0.13,-0.321 0.201,-0.48 l -1.469,-1.638 c 0.419,-0.762 0.934,-1.471 1.528,-2.113 l 2.068,0.831 c 0.111,-0.101 0.224,-0.196 0.342,-0.29 l -0.543,-2.144 c 0.719,-0.485 1.504,-0.887 2.346,-1.194 l 1.441,1.697 c 0.068,-0.019 0.135,-0.037 0.202,-0.054 0.07,-0.015 0.138,-0.028 0.204,-0.044 l 0.52,-2.162 c 0.89,-0.11 1.773,-0.108 2.633,10e-4 l 0.486,2.156 c 0.147,0.034 0.291,0.066 0.435,0.106 l 1.467,-1.679 c 0.821,0.305 1.598,0.707 2.321,1.196 l -0.571,2.125 c 0.135,0.109 0.268,0.221 0.396,0.339 l 2.087,-0.806 c 0.57,0.626 1.07,1.326 1.484,2.089 l -1.487,1.614 c 0.083,0.187 0.162,0.379 0.232,0.578 l 2.219,0.254 z" /><path
             id="path42"
             style="fill:#4f4c4d;fill-opacity:1;fill-rule:nonzero;stroke:none"
             d="m 344.77488,515.37039 c -2.692,0.646 -4.353,3.348 -3.709,6.041 0.645,2.691 3.347,4.351 6.039,3.709 2.693,-0.645 4.353,-3.349 3.71,-6.041 -0.645,-2.69 -3.349,-4.351 -6.04,-3.709 m 8.564,2.959 c 0.014,0.048 0.026,0.092 0.037,0.139 0.13,0.546 0.198,1.092 0.21,1.631 l -1.468,0.524 c -0.009,0.173 -0.029,0.346 -0.054,0.518 l 1.311,0.894 c -0.14,0.572 -0.342,1.123 -0.604,1.644 l -1.543,-0.219 c -0.103,0.167 -0.213,0.33 -0.328,0.488 l 0.74,1.391 c -0.381,0.429 -0.811,0.814 -1.287,1.15 l -1.266,-0.913 c -0.178,0.106 -0.365,0.202 -0.556,0.289 l 0.01,1.57 c -0.266,0.097 -0.541,0.179 -0.824,0.247 -0.283,0.067 -0.563,0.115 -0.845,0.151 l -0.702,-1.402 c -0.209,0.007 -0.419,0.004 -0.625,-0.009 l -0.718,1.389 c -0.575,-0.087 -1.134,-0.235 -1.667,-0.444 l 0.031,-1.577 c -0.176,-0.089 -0.348,-0.183 -0.514,-0.286 l -1.277,0.892 c -0.469,-0.346 -0.9,-0.744 -1.282,-1.193 l 0.766,-1.389 c -0.101,-0.142 -0.195,-0.287 -0.284,-0.439 l -1.545,0.198 c -0.233,-0.486 -0.421,-1.005 -0.551,-1.55 -0.012,-0.046 -0.02,-0.093 -0.032,-0.14 l 1.326,-0.876 c -0.017,-0.148 -0.031,-0.295 -0.037,-0.44 l -1.465,-0.548 c 0.018,-0.615 0.11,-1.22 0.272,-1.803 l 1.582,-0.159 c 0.045,-0.116 0.092,-0.229 0.143,-0.342 l -1.045,-1.164 c 0.298,-0.542 0.664,-1.047 1.087,-1.504 l 1.471,0.592 c 0.078,-0.073 0.158,-0.141 0.243,-0.207 l -0.386,-1.525 c 0.511,-0.346 1.069,-0.632 1.669,-0.85 l 1.025,1.208 c 0.049,-0.014 0.096,-0.027 0.144,-0.04 0.049,-0.009 0.098,-0.019 0.145,-0.031 l 0.369,-1.538 c 0.633,-0.077 1.262,-0.076 1.873,0.002 l 0.346,1.533 c 0.104,0.025 0.207,0.047 0.31,0.075 l 1.044,-1.194 c 0.583,0.217 1.136,0.503 1.65,0.851 l -0.405,1.511 c 0.095,0.079 0.19,0.158 0.281,0.242 l 1.484,-0.574 c 0.406,0.446 0.762,0.944 1.056,1.487 l -1.058,1.147 c 0.06,0.133 0.116,0.27 0.165,0.412 l 1.578,0.181 z" /></g><g
           id="g3848"><path
             d="m 314.13328,506.96609 6.582,0 c -0.607,1.129 -1.216,2.247 -1.821,3.347 -4.535,8.245 -8.819,16.038 -8.819,27.375 0,16.556 11.643,43.256 42.964,44.406 0.505,0.03 1.019,0.054 1.548,0.054 l 0.021,0 0.161,-0.008 0.263,0.008 c 0.542,0 1.059,-0.024 1.65,-0.054 31.249,-1.15 42.89,-27.85 42.89,-44.406 0,-11.337 -4.284,-19.13 -8.822,-27.375 -0.604,-1.1 -1.214,-2.218 -1.819,-3.347 l 6.582,0 c 0.101,0.185 0.204,0.374 0.306,0.559 4.689,8.525 9.539,17.34 9.539,30.163 0,20.096 -15.035,48.955 -48.385,50.177 -0.631,0.04 -1.275,0.064 -1.941,0.064 l -0.42,0 c -0.664,0 -1.31,-0.024 -1.861,-0.06 -33.425,-1.226 -48.461,-30.085 -48.461,-50.181 0,-12.823 4.848,-21.638 9.537,-30.163 0.102,-0.185 0.204,-0.374 0.306,-0.559"
             style="fill:#f0d103;fill-opacity:1;fill-rule:nonzero;stroke:none"
             id="path46" /><g
             id="g3842"><path
               d="m 367.45648,438.04809 -25.268,0 c -1.427,0 -2.595,0.484 -2.595,1.089 0,0.6 1.168,1.09 2.595,1.09 l 25.268,0 c 1.432,0 2.594,-0.49 2.594,-1.09 0,-0.605 -1.162,-1.089 -2.594,-1.089 m 0,-8.697 -25.268,0 c -1.427,0 -2.595,0.482 -2.595,1.084 0,0.604 1.168,1.09 2.595,1.09 l 25.268,0 c 1.432,0 2.594,-0.486 2.594,-1.09 0,-0.602 -1.162,-1.084 -2.594,-1.084 m 9.62,5.435 c 0,2.05 -1.4,3.762 -3.291,4.266 1.891,0.51 3.291,2.217 3.291,4.268 0,2.451 -1.984,4.439 -4.435,4.439 l -35.638,0 c -2.45,0 -4.436,-1.988 -4.436,-4.439 0,-2.051 1.403,-3.758 3.295,-4.268 -1.892,-0.504 -3.295,-2.216 -3.295,-4.266 0,-2.049 1.403,-3.759 3.295,-4.264 -1.892,-0.509 -3.295,-2.216 -3.295,-4.268 0,-2.449 1.986,-4.434 4.436,-4.434 l 35.638,0 c 2.451,0 4.435,1.985 4.435,4.434 0,2.052 -1.4,3.759 -3.291,4.268 1.891,0.505 3.291,2.215 3.291,4.264"
               style="fill:#4f4c4d;fill-opacity:1;fill-rule:nonzero;stroke:none"
               id="path22" /><path
               d="m 339.91748,420.23069 c 3.383,-4.561 8.794,-7.532 14.907,-7.532 6.114,0 11.526,2.971 14.907,7.532 l -29.814,0 z"
               style="fill:#4f4c4d;fill-opacity:1;fill-rule:nonzero;stroke:none"
               id="path26" /><path
               d="m 329.89648,454.96609 c 1.72,-3.752 4.785,-5.5 9.41,-5.5 l 31.033,0 c 4.627,0 7.691,1.748 9.41,5.5 l -49.853,0 z"
               style="fill:#f0d103;fill-opacity:1;fill-rule:nonzero;stroke:none"
               id="path50" /></g></g></g><g
         id="g3813"
         transform="translate(-14.2215,0)"><path
           d="m 301.98678,502.02369 3.536,0 3.303,-13.416 0.052,0 3.276,13.416 3.51,0 -4.784,-18.772 -4.082,0 -4.811,18.772 z"
           style="fill:#4f4c4d;fill-opacity:1;fill-rule:nonzero;stroke:none"
           id="path54" /><path
           id="path56"
           style="fill:#4f4c4d;fill-opacity:1;fill-rule:nonzero;stroke:none"
           d="m 317.87358,502.02399 3.588,0 0,-18.772 -3.588,0 0,18.772 z" /><path
           d="m 328.16838,488.81569 c 0,-2.08 0.91,-2.652 2.341,-2.652 1.43,0 2.34,0.572 2.34,2.652 l 0,1.248 3.588,0 0,-0.78 c 0,-4.628 -2.445,-6.292 -5.928,-6.292 -3.485,0 -5.929,1.664 -5.929,6.292 l 0,6.708 c 0,4.628 2.444,6.292 5.929,6.292 3.483,0 5.928,-1.664 5.928,-6.292 l 0,-0.052 -3.588,0 0,0.52 c 0,2.08 -0.91,2.652 -2.34,2.652 -1.431,0 -2.341,-0.572 -2.341,-2.652 l 0,-7.644 z"
           style="fill:#4f4c4d;fill-opacity:1;fill-rule:nonzero;stroke:none"
           id="path60" /><path
           d="m 350.21728,502.02369 0,-3.172 -4.187,0 0,-15.6 -3.587,0 0,15.6 -4.187,0 0,3.172 11.961,0 z"
           style="fill:#4f4c4d;fill-opacity:1;fill-rule:nonzero;stroke:none"
           id="path64" /><path
           d="m 355.62548,488.81569 c 0,-2.08 0.909,-2.652 2.34,-2.652 1.43,0 2.34,0.572 2.34,2.652 l 0,7.644 c 0,2.08 -0.91,2.652 -2.34,2.652 -1.431,0 -2.34,-0.572 -2.34,-2.652 l 0,-7.644 z m -3.589,7.176 c 0,4.628 2.444,6.292 5.929,6.292 3.484,0 5.928,-1.664 5.928,-6.292 l 0,-6.708 c 0,-4.628 -2.444,-6.292 -5.928,-6.292 -3.485,0 -5.929,1.664 -5.929,6.292 l 0,6.708 z"
           style="fill:#4f4c4d;fill-opacity:1;fill-rule:nonzero;stroke:none"
           id="path68" /><path
           d="m 370.39308,493.85959 1.846,0 c 1.586,0 2.549,0.78 2.549,2.6 0,1.82 -0.963,2.6 -2.549,2.6 l -1.846,0 0,-5.2 z m 4.836,-10.608 -3.12,7.644 -1.716,0 0,-7.644 -3.588,0 0,18.772 5.2,0 c 4.316,0 6.37,-2.08 6.37,-5.616 0,-2.34 -0.832,-4.03 -2.834,-4.784 l 3.537,-8.372 -3.849,0 z"
           style="fill:#4f4c4d;fill-opacity:1;fill-rule:nonzero;stroke:none"
           id="path72" /><path
           id="path74"
           style="fill:#4f4c4d;fill-opacity:1;fill-rule:nonzero;stroke:none"
           d="m 381.46958,502.02399 3.588,0 0,-18.772 -3.588,0 0,18.772 z" /><path
           d="m 392.33638,490.37529 3.563,0 -1.743,7.593 -0.051,0 -1.769,-7.593 z m -5.122,-7.124 4.654,18.772 4.603,0 4.523,-18.772 -3.431,0 -0.911,3.952 -4.965,0 -1.015,-3.952 -3.458,0 z"
           style="fill:#4f4c4d;fill-opacity:1;fill-rule:nonzero;stroke:none"
           id="path78" /></g><g
         id="g3823"><path
           d="m 265.60008,459.25119 0,18.772 5.018,0 3.25,-12.324 0.052,0 3.25,12.324 5.018,0 0,-18.772 -3.067,0 0,14.769 -0.053,0 -3.822,-14.769 -2.704,0 -3.822,14.769 -0.052,0 0,-14.769 -3.068,0 z"
           style="fill:#4f4c4d;fill-opacity:1;fill-rule:nonzero;stroke:none"
           id="path84" /><path
           d="m 289.46818,466.37529 3.562,0 -1.742,7.593 -0.052,0 -1.768,-7.593 z m -5.123,-7.124 4.655,18.772 4.602,0 4.524,-18.772 -3.432,0 -0.91,3.952 -4.966,0 -1.014,-3.952 -3.459,0 z"
           style="fill:#4f4c4d;fill-opacity:1;fill-rule:nonzero;stroke:none"
           id="path88" /><path
           d="m 300.07568,459.25119 0,18.772 3.588,0 0,-7.748 0.052,0 4.654,7.748 3.926,0 -4.836,-7.566 5.383,-11.206 -4.031,0 -3.744,7.878 -1.404,-2.132 0,-5.746 -3.588,0 z"
           style="fill:#4f4c4d;fill-opacity:1;fill-rule:nonzero;stroke:none"
           id="path92" /><path
           d="m 314.53168,459.25119 0,18.772 9.828,0 0,-3.171 -6.24,0 0,-4.317 4.758,0 0,-3.172 -4.758,0 0,-4.94 6.5,0 0,-3.172 -10.088,0 z"
           style="fill:#4f4c4d;fill-opacity:1;fill-rule:nonzero;stroke:none"
           id="path96" /><path
           d="m 331.11958,469.85959 1.846,0 c 1.586,0 2.549,0.78 2.549,2.6 0,1.82 -0.963,2.6 -2.549,2.6 l -1.846,0 0,-5.2 z m 4.836,-10.608 -3.12,7.644 -1.716,0 0,-7.644 -3.588,0 0,18.772 5.2,0 c 4.316,0 6.37,-2.08 6.37,-5.616 0,-2.34 -0.832,-4.03 -2.834,-4.784 l 3.537,-8.372 -3.849,0 z"
           style="fill:#4f4c4d;fill-opacity:1;fill-rule:nonzero;stroke:none"
           id="path100" /><path
           d="m 349.91748,472.79809 c -0.598,1.768 -1.378,2.521 -2.626,2.521 -1.273,0 -1.976,-0.78 -1.976,-2.053 0,-2.834 8.008,-3.042 8.008,-8.918 0,-3.225 -2.21,-5.357 -5.979,-5.357 -2.912,0 -5.175,1.586 -6.137,5.279 l 3.536,0.754 c 0.416,-2.263 1.716,-3.069 2.782,-3.069 1.248,0 2.21,0.832 2.21,2.237 0,3.536 -8.008,3.587 -8.008,8.839 0,3.225 1.924,5.252 5.642,5.252 3.198,0 5.149,-1.897 5.773,-4.549 l -3.225,-0.936 z"
           style="fill:#4f4c4d;fill-opacity:1;fill-rule:nonzero;stroke:none"
           id="path104" /><path
           d="m 360.23968,469.75609 1.924,0 c 1.768,0 2.652,0.884 2.652,2.651 0,1.769 -0.884,2.653 -2.652,2.653 l -1.924,0 0,-5.304 z m -3.588,-10.505 0,18.773 5.174,0 c 4.42,0 6.578,-2.08 6.578,-5.617 0,-3.536 -2.158,-5.616 -6.578,-5.616 l -1.586,0 0,-7.54 -3.588,0 z"
           style="fill:#4f4c4d;fill-opacity:1;fill-rule:nonzero;stroke:none"
           id="path108" /><path
           d="m 373.78558,466.37529 3.563,0 -1.743,7.593 -0.051,0 -1.769,-7.593 z m -5.122,-7.124 4.654,18.772 4.603,0 4.523,-18.772 -3.431,0 -0.911,3.952 -4.965,0 -1.015,-3.952 -3.458,0 z"
           style="fill:#4f4c4d;fill-opacity:1;fill-rule:nonzero;stroke:none"
           id="path112" /><path
           d="m 387.67038,464.81569 c 0,-2.08 0.909,-2.652 2.34,-2.652 1.43,0 2.34,0.572 2.34,2.652 l 0,1.248 3.588,0 0,-0.78 c 0,-4.628 -2.444,-6.292 -5.928,-6.292 -3.485,0 -5.929,1.664 -5.929,6.292 l 0,6.708 c 0,4.628 2.444,6.292 5.929,6.292 3.484,0 5.928,-1.664 5.928,-6.292 l 0,-0.052 -3.588,0 0,0.52 c 0,2.08 -0.91,2.652 -2.34,2.652 -1.431,0 -2.34,-0.572 -2.34,-2.652 l 0,-7.644 z"
           style="fill:#4f4c4d;fill-opacity:1;fill-rule:nonzero;stroke:none"
           id="path116" /><path
           d="m 398.85008,459.25119 0,18.772 9.828,0 0,-3.171 -6.24,0 0,-4.317 4.758,0 0,-3.172 -4.758,0 0,-4.94 6.5,0 0,-3.172 -10.088,0 z"
           style="fill:#4f4c4d;fill-opacity:1;fill-rule:nonzero;stroke:none"
           id="path120" /></g></g></g></svg>