<?xml version="1.0" encoding="UTF-8" standalone="no"?>
<svg
   xmlns:dc="http://purl.org/dc/elements/1.1/"
   xmlns:cc="http://creativecommons.org/ns#"
   xmlns:rdf="http://www.w3.org/1999/02/22-rdf-syntax-ns#"
   xmlns:svg="http://www.w3.org/2000/svg"
   xmlns="http://www.w3.org/2000/svg"
   version="1.1"
   id="svg3451"
   viewBox="0 0 400 400.00001"
   height="400"
   width="400">
  <defs
     id="defs3453" />
  <metadata
     id="metadata3456">
    <rdf:RDF>
      <cc:Work
         rdf:about="">
        <dc:format>image/svg+xml</dc:format>
        <dc:type
           rdf:resource="http://purl.org/dc/dcmitype/StillImage" />
        <dc:title></dc:title>
      </cc:Work>
    </rdf:RDF>
  </metadata>
  <g
     style="display:inline"
     transform="translate(0,-652.36216)"
     id="layer1">
    <g
       transform="translate(84.999997,0)"
       id="g3529">
      <g
         id="g132"
         transform="matrix(4.5858755,0,0,-4.5998425,143.74977,994.4971)">
        <path
           d="m 0,0 -12.54,0 c -0.708,0 -1.288,0.24 -1.288,0.54 0,0.298 0.58,0.541 1.288,0.541 L 0,1.081 C 0.71,1.081 1.287,0.838 1.287,0.54 1.287,0.24 0.71,0 0,0 m 0,-4.316 -12.54,0 c -0.708,0 -1.288,0.241 -1.288,0.539 0,0.298 0.58,0.539 1.288,0.539 l 12.54,0 c 0.71,0 1.287,-0.241 1.287,-0.539 C 1.287,-4.075 0.71,-4.316 0,-4.316 m 4.774,2.698 c 0,1.017 -0.695,1.866 -1.633,2.116 0.938,0.253 1.633,1.1 1.633,2.118 0,1.217 -0.985,2.203 -2.201,2.203 l -17.686,0 c -1.216,0 -2.201,-0.986 -2.201,-2.203 0,-1.018 0.696,-1.865 1.635,-2.118 -0.939,-0.25 -1.635,-1.099 -1.635,-2.116 0,-1.017 0.696,-1.866 1.635,-2.116 -0.939,-0.254 -1.635,-1.101 -1.635,-2.118 0,-1.216 0.985,-2.201 2.201,-2.201 l 17.686,0 c 1.216,0 2.201,0.985 2.201,2.201 0,1.017 -0.695,1.864 -1.633,2.118 0.938,0.25 1.633,1.099 1.633,2.116"
           style="fill:#4f4c4d;fill-opacity:1;fill-rule:nonzero;stroke:none"
           id="path134" />
      </g>
      <g
         id="g136"
         transform="matrix(4.5858755,0,0,-4.5998425,81.076907,1035.1726)">
        <path
           d="m 0,0 c 1.678,-2.263 4.364,-3.737 7.397,-3.737 3.034,0 5.72,1.474 7.398,3.737 L 0,0 Z"
           style="fill:#4f4c4d;fill-opacity:1;fill-rule:nonzero;stroke:none"
           id="path138" />
      </g>
      <g
         id="g140"
         transform="matrix(4.5858755,0,0,-4.5998425,114.45887,665.56374)">
        <path
           transform="matrix(0.21806087,0,0,-0.21739875,-43.494174,2.870007)"
           id="path3785"
           d="M 256.17773 304.51172 L 143.82031 304.51172 C 147.81823 312.35017 154.60192 316.07422 164.68359 316.07422 L 235.30664 316.07422 C 245.39941 316.07422 252.18237 312.35017 256.17773 304.51172 z "
           style="fill:#f0d103;fill-opacity:1;fill-rule:nonzero;stroke:none" />
        <path
           transform="matrix(0.21806087,0,0,-0.21739875,-43.494174,2.870007)"
           id="path142"
           d="M 199.51758 0 C 198.00883 0 196.5371 0.05587471 195.28516 0.13867188 C 119.21465 2.939976 85 68.817871 85 114.6875 C 85 135.13458 90.417433 151.07783 97.298828 165.48828 L 112.00781 165.48828 C 104.33534 150.60685 98.166016 135.18661 98.166016 114.6875 C 98.166016 76.890594 124.65924 15.956022 195.9375 13.320312 C 197.08855 13.246715 198.25748 13.201172 199.45898 13.201172 L 199.50977 13.201172 L 199.87695 13.220703 L 200.47656 13.201172 C 201.70558 13.201172 202.88485 13.246715 204.22852 13.320312 C 275.34627 15.956022 301.83398 76.890594 301.83398 114.6875 C 301.83398 135.18642 295.66522 150.60698 287.98828 165.48828 L 302.69727 165.48828 C 309.58147 151.07795 315 135.13437 315 114.6875 C 315 68.817871 280.78882 2.9385888 204.89258 0.14648438 C 203.45261 0.054487525 201.9899 1.2256443e-17 200.47656 0 L 199.51758 0 z "
           style="fill:#f0d103;fill-opacity:1;fill-rule:nonzero;stroke:none" />
      </g>
      <g
         id="g144"
         transform="matrix(4.5858755,0,0,-4.5998425,84.375062,777.90477)">
        <path
           d="m 0,0 c -3.972,0.951 -6.421,4.938 -5.471,8.909 0.949,3.971 4.937,6.42 8.907,5.471 C 7.408,13.43 9.857,9.442 8.908,5.472 7.958,1.501 3.971,-0.949 0,0 m 12.635,4.364 c 0.017,0.069 0.035,0.135 0.052,0.204 0.192,0.806 0.291,1.613 0.308,2.408 L 10.832,7.748 C 10.815,8.004 10.787,8.26 10.75,8.514 l 1.934,1.318 c -0.204,0.842 -0.504,1.655 -0.89,2.424 L 9.518,11.933 c -0.151,0.245 -0.313,0.486 -0.486,0.718 l 1.095,2.055 c -0.563,0.632 -1.198,1.2 -1.898,1.695 l -1.87,-1.348 c -0.262,0.156 -0.537,0.3 -0.818,0.428 l 0.014,2.317 c -0.393,0.14 -0.799,0.261 -1.216,0.361 -0.415,0.1 -0.831,0.173 -1.246,0.225 L 2.059,16.315 C 1.748,16.325 1.44,16.323 1.134,16.302 l -1.059,2.049 c -0.847,-0.126 -1.671,-0.348 -2.458,-0.655 l 0.047,-2.327 c -0.26,-0.13 -0.513,-0.27 -0.759,-0.422 l -1.883,1.317 c -0.692,-0.511 -1.327,-1.1 -1.892,-1.759 l 1.131,-2.051 c -0.148,-0.208 -0.289,-0.423 -0.42,-0.646 l -2.278,0.291 C -8.782,11.383 -9.058,10.618 -9.25,9.813 -9.266,9.744 -9.281,9.675 -9.296,9.607 L -7.341,8.313 C -7.369,8.098 -7.386,7.879 -7.397,7.664 L -9.556,6.858 C -9.53,5.95 -9.394,5.056 -9.156,4.197 L -6.821,3.964 C -6.758,3.793 -6.686,3.625 -6.613,3.459 L -8.154,1.741 c 0.442,-0.801 0.98,-1.547 1.604,-2.218 l 2.17,0.873 c 0.116,-0.107 0.235,-0.208 0.358,-0.305 l -0.569,-2.249 c 0.753,-0.509 1.578,-0.933 2.463,-1.253 l 1.512,1.777 c 0.071,-0.016 0.14,-0.038 0.211,-0.054 0.072,-0.018 0.144,-0.029 0.215,-0.045 l 0.544,-2.271 c 0.934,-0.115 1.861,-0.111 2.763,10e-4 l 0.51,2.265 c 0.153,0.032 0.306,0.068 0.457,0.109 l 1.541,-1.76 c 0.859,0.319 1.676,0.739 2.433,1.253 L 7.46,0.096 c 0.141,0.115 0.28,0.23 0.415,0.354 l 2.189,-0.845 c 0.6,0.658 1.125,1.393 1.56,2.192 l -1.562,1.692 c 0.088,0.197 0.169,0.4 0.244,0.609 l 2.329,0.266 z"
           style="fill:#4f4c4d;fill-opacity:1;fill-rule:nonzero;stroke:none"
           id="path146" />
      </g>
      <g
         id="g148"
         transform="matrix(4.5858755,0,0,-4.5998425,143.5191,830.89266)">
        <path
           transform="matrix(0.21806087,0,0,-0.21739875,-49.831073,38.812307)"
           id="path150"
           d="M 238.13086 121.24414 L 234.91602 127.69336 C 233.95298 127.65196 232.9942 127.66147 232.04492 127.73047 L 228.75391 121.33984 C 226.12161 121.73543 223.56146 122.42145 221.11719 123.38281 L 221.25977 130.63281 C 220.45724 131.0376 219.66818 131.47808 218.90234 131.94727 L 213.05078 127.83984 C 210.90459 129.43599 208.93345 131.2667 207.18164 133.33203 L 210.68945 139.71289 C 210.23087 140.36147 209.79486 141.03715 209.38672 141.73633 L 202.31055 140.82031 C 201.23745 143.05124 200.37937 145.43966 199.7832 147.95117 C 199.73276 148.16276 199.68716 148.37365 199.63672 148.58984 L 205.71289 152.61914 C 205.63034 153.29992 205.57575 153.9664 205.53906 154.64258 L 198.83398 157.1543 C 198.91194 159.9832 199.33853 162.76625 200.07227 165.44336 L 200.51758 165.48828 L 212.98047 165.48828 C 210.97775 161.01083 210.29616 155.90339 211.51953 150.76562 C 214.47284 138.39205 226.85931 130.76174 239.19531 133.71484 C 251.54049 136.67714 259.14403 149.10494 256.19531 161.47852 C 255.85991 162.88542 255.36858 164.21247 254.80273 165.48828 L 262.88086 165.48828 L 267.77344 164.92969 C 267.82388 164.71349 267.88383 164.50651 267.92969 164.29492 C 268.53044 161.77881 268.84213 159.26642 268.89258 156.78711 L 262.16992 154.38672 C 262.12406 153.58635 262.03652 152.79451 261.92188 151.99414 L 267.92578 147.89062 C 267.29293 145.26411 266.36098 142.72981 265.16406 140.33789 L 258.08789 141.33984 C 257.61555 140.57167 257.11595 139.83224 256.58398 139.10547 L 259.98242 132.70703 C 258.23062 130.7291 256.26423 128.96282 254.08594 127.42188 L 248.27539 131.61719 C 247.4591 131.1342 246.61096 130.6873 245.73047 130.28711 L 245.77539 123.06641 C 244.55096 122.63402 243.29517 122.24695 242.00195 121.94336 C 240.71332 121.63057 239.41949 121.40514 238.13086 121.24414 z "
           style="fill:#4f4c4d;fill-opacity:1;fill-rule:nonzero;stroke:none" />
      </g>
      <g
         id="g152"
         transform="matrix(4.5858755,0,0,-4.5998425,166.80205,765.89321)">
        <path
           d="M 0,0 C -1.879,0.45 -3.037,2.335 -2.588,4.214 -2.139,6.093 -0.253,7.249 1.624,6.802 3.503,6.354 4.662,4.467 4.212,2.587 3.763,0.709 1.877,-0.447 0,0 M 5.975,2.063 C 5.983,2.098 5.992,2.128 5.999,2.161 6.091,2.542 6.138,2.923 6.146,3.299 L 5.122,3.664 C 5.115,3.786 5.102,3.904 5.084,4.025 L 5.999,4.649 C 5.901,5.048 5.759,5.432 5.578,5.795 L 4.501,5.643 C 4.429,5.759 4.353,5.873 4.272,5.983 L 4.789,6.954 C 4.522,7.254 4.222,7.521 3.891,7.756 L 3.007,7.119 C 2.883,7.192 2.753,7.262 2.62,7.322 L 2.625,8.416 C 2.44,8.483 2.249,8.541 2.052,8.588 1.854,8.635 1.659,8.669 1.462,8.694 L 0.973,7.717 C 0.826,7.722 0.68,7.718 0.536,7.71 l -0.5,0.969 C -0.366,8.62 -0.756,8.515 -1.128,8.368 l 0.022,-1.1 C -1.228,7.206 -1.348,7.142 -1.464,7.069 L -2.355,7.692 C -2.683,7.451 -2.983,7.173 -3.25,6.858 l 0.535,-0.967 c -0.071,-0.1 -0.136,-0.2 -0.198,-0.307 L -3.991,5.723 C -4.153,5.383 -4.284,5.021 -4.375,4.641 -4.383,4.609 -4.39,4.577 -4.396,4.544 L -3.472,3.933 C -3.485,3.83 -3.494,3.727 -3.499,3.625 L -4.52,3.243 c 0.012,-0.429 0.077,-0.851 0.189,-1.258 l 1.104,-0.111 c 0.031,-0.081 0.064,-0.159 0.1,-0.237 L -3.856,0.823 c 0.208,-0.378 0.463,-0.73 0.758,-1.048 l 1.026,0.413 C -2.018,0.137 -1.96,0.09 -1.902,0.043 l -0.269,-1.064 c 0.357,-0.241 0.746,-0.441 1.163,-0.592 l 0.716,0.842 c 0.033,-0.009 0.066,-0.018 0.1,-0.027 0.034,-0.008 0.068,-0.015 0.102,-0.021 l 0.257,-1.075 c 0.442,-0.052 0.88,-0.052 1.307,10e-4 l 0.242,1.071 c 0.072,0.016 0.144,0.033 0.215,0.051 l 0.728,-0.833 c 0.407,0.151 0.793,0.352 1.152,0.595 L 3.527,0.046 c 0.067,0.053 0.134,0.108 0.197,0.167 l 1.035,-0.4 C 5.042,0.124 5.29,0.471 5.496,0.85 L 4.757,1.651 c 0.042,0.093 0.081,0.188 0.116,0.287 l 1.102,0.125 z"
           style="fill:#4f4c4d;fill-opacity:1;fill-rule:nonzero;stroke:none"
           id="path154" />
      </g>
      <g
         id="g156"
         transform="matrix(4.5858755,0,0,-4.5998425,92.127032,827.12401)">
        <path
           transform="matrix(0.21806087,0,0,-0.21739875,-38.624474,37.993007)"
           id="path158"
           d="M 181.90039 146.3125 L 180.30469 149.51758 C 179.82776 149.49918 179.35125 149.50422 178.87891 149.54102 L 177.25 146.35742 C 175.93844 146.56441 174.66838 146.90052 173.45312 147.37891 L 173.52734 150.97656 C 173.12837 151.17896 172.73346 151.39488 172.35742 151.63867 L 169.45117 149.5918 C 168.38725 150.38757 167.40061 151.29385 166.5293 152.32422 L 168.27539 155.48828 C 168.0461 155.81027 167.83527 156.1472 167.62891 156.49219 L 164.11719 156.04102 C 163.58064 157.14958 163.15355 158.33617 162.85547 159.57812 C 162.83254 159.68392 162.81462 159.78999 162.78711 159.90039 L 165.80469 161.88672 C 165.76341 162.23631 165.73641 162.57771 165.72266 162.9043 L 162.38867 164.14062 C 162.40064 164.60128 162.53947 165.03429 162.58789 165.48828 L 168.53125 165.48828 C 168.29254 164.0304 168.3287 162.50367 168.69336 160.97656 C 170.15625 154.83117 176.30686 151.04046 182.43359 152.50781 C 188.29304 153.91449 191.8639 159.62594 190.9043 165.48828 L 196.98633 165.48828 C 197.04031 164.98303 197.17042 164.47168 197.18164 163.9707 L 193.8418 162.76953 C 193.82345 162.37854 193.77837 161.98348 193.71875 161.58789 L 196.70508 159.54492 C 196.38407 158.23857 195.92497 156.9934 195.32422 155.80664 L 191.81641 156.29883 C 191.57794 155.91244 191.32975 155.54433 191.06836 155.18555 L 192.75586 152.00586 C 191.88454 151.02609 190.90844 150.14443 189.82617 149.38086 L 186.94141 151.47266 C 186.53785 151.22426 186.11535 151.00443 185.67969 150.80664 L 185.69727 147.22266 C 185.09193 147.00186 184.46819 146.81264 183.82617 146.65625 C 183.18415 146.50446 182.547 146.3999 181.90039 146.3125 z "
           style="fill:#4f4c4d;fill-opacity:1;fill-rule:nonzero;stroke:none" />
      </g>
    </g>
  </g>
  <g
     style="display:inline"
     id="layer2">
    <g
       transform="matrix(0.46890721,0,0,0.46575715,166.84322,-156.8137)"
       id="g3684">
      <g
         transform="matrix(4.5998425,0,0,-4.5998425,-1655.6853,1801.7603)"
         id="g3968">
        <g
           id="g160"
           transform="translate(311.26808,236.48459)">
          <path
             d="m 0,0 4.576,0 4.274,-17.357 0.065,0 4.24,17.357 4.541,0 -6.191,-24.288 -5.281,0 L 0,0 Z"
             style="fill:#4f4c4d;fill-opacity:1;fill-rule:nonzero;stroke:none"
             id="path162" />
        </g>
        <path
           d="m 331.82258,236.48499 4.642,0 0,-24.288 -4.642,0 0,24.288 z"
           style="fill:#4f4c4d;fill-opacity:1;fill-rule:nonzero;stroke:none"
           id="path164" />
        <g
           id="g166"
           transform="translate(345.14208,219.39669)">
          <path
             d="m 0,0 c 0,-2.691 1.178,-3.432 3.03,-3.432 1.85,0 3.028,0.741 3.028,3.432 l 0,1.614 4.641,0 0,-1.01 c 0,-5.987 -3.164,-8.14 -7.669,-8.14 -4.509,0 -7.672,2.153 -7.672,8.14 l 0,8.68 c 0,5.987 3.163,8.141 7.672,8.141 4.505,0 7.669,-2.154 7.669,-8.141 l 0,-0.067 -4.641,0 0,0.672 C 6.058,12.58 4.88,13.32 3.03,13.32 1.178,13.32 0,12.58 0,9.889 L 0,0 Z"
             style="fill:#4f4c4d;fill-opacity:1;fill-rule:nonzero;stroke:none"
             id="path168" />
        </g>
        <g
           id="g170"
           transform="translate(373.66838,236.48459)">
          <path
             d="m 0,0 0,-4.104 -5.415,0 0,-20.184 -4.642,0 0,20.184 -5.418,0 0,4.104 L 0,0 Z"
             style="fill:#4f4c4d;fill-opacity:1;fill-rule:nonzero;stroke:none"
             id="path172" />
        </g>
        <g
           id="g174"
           transform="translate(380.66548,219.39669)">
          <path
             d="m 0,0 c 0,-2.691 1.178,-3.432 3.027,-3.432 1.85,0 3.028,0.741 3.028,3.432 l 0,9.889 C 6.055,12.58 4.877,13.32 3.027,13.32 1.178,13.32 0,12.58 0,9.889 L 0,0 Z m -4.642,9.284 c 0,5.987 3.162,8.141 7.669,8.141 4.509,0 7.67,-2.154 7.67,-8.141 l 0,-8.68 c 0,-5.987 -3.161,-8.14 -7.67,-8.14 -4.507,0 -7.669,2.153 -7.669,8.14 l 0,8.68 z"
             style="fill:#4f4c4d;fill-opacity:1;fill-rule:nonzero;stroke:none"
             id="path176" />
        </g>
        <g
           id="g178"
           transform="translate(399.77198,225.92209)">
          <path
             d="M 0,0 2.389,0 C 4.44,0 5.687,1.01 5.687,3.363 5.687,5.719 4.44,6.729 2.389,6.729 L 0,6.729 0,0 Z m 6.257,-13.726 -4.035,9.891 -2.222,0 0,-9.891 -4.642,0 0,24.289 6.73,0 c 5.582,0 8.24,-2.691 8.24,-7.266 0,-3.027 -1.076,-5.215 -3.667,-6.191 l 4.577,-10.832 -4.981,0 z"
             style="fill:#4f4c4d;fill-opacity:1;fill-rule:nonzero;stroke:none"
             id="path180" />
        </g>
        <path
           d="m 414.10258,236.48499 4.642,0 0,-24.288 -4.642,0 0,24.288 z"
           style="fill:#4f4c4d;fill-opacity:1;fill-rule:nonzero;stroke:none"
           id="path182" />
        <g
           id="g184"
           transform="translate(428.16258,221.41429)">
          <path
             d="M 0,0 4.609,0 2.355,9.823 2.29,9.823 0,0 Z m -6.625,-9.218 6.021,24.288 5.954,0 5.852,-24.288 -4.439,0 -1.178,5.114 -6.424,0 -1.313,-5.114 -4.473,0 z"
             style="fill:#4f4c4d;fill-opacity:1;fill-rule:nonzero;stroke:none"
             id="path186" />
        </g>
      </g>
      <g
         transform="matrix(4.5998425,0,0,-4.5998425,-1571.0493,1801.7603)"
         id="g3984">
        <g
           id="g190"
           transform="translate(264.19088,181.14579)">
          <path
             d="m 0,0 0,24.288 6.493,0 4.205,-15.945 0.067,0 4.205,15.945 6.492,0 0,-24.288 -3.969,0 0,19.107 -0.067,0 L 12.48,0 8.982,0 4.037,19.107 3.97,19.107 3.97,0 0,0 Z"
             style="fill:#4f4c4d;fill-opacity:1;fill-rule:nonzero;stroke:none"
             id="path192" />
        </g>
        <g
           id="g194"
           transform="translate(295.07228,190.36259)">
          <path
             d="M 0,0 4.61,0 2.354,9.823 2.287,9.823 0,0 Z m -6.628,-9.217 6.022,24.288 5.954,0 5.855,-24.288 -4.44,0 -1.178,5.113 -6.427,0 -1.311,-5.113 -4.475,0 z"
             style="fill:#4f4c4d;fill-opacity:1;fill-rule:nonzero;stroke:none"
             id="path196" />
        </g>
        <g
           id="g198"
           transform="translate(308.79688,181.14579)">
          <path
             d="m 0,0 0,24.288 4.642,0 0,-10.024 0.066,0 6.021,10.024 5.08,0 L 9.552,14.498 16.516,0 11.303,0 6.459,10.192 4.642,7.434 4.642,0 0,0 Z"
             style="fill:#4f4c4d;fill-opacity:1;fill-rule:nonzero;stroke:none"
             id="path200" />
        </g>
        <g
           id="g202"
           transform="translate(327.49898,181.14579)">
          <path
             d="m 0,0 0,24.288 12.715,0 0,-4.104 -8.073,0 0,-5.584 6.155,0 0,-4.105 -6.155,0 0,-6.391 8.409,0 L 13.051,0 0,0 Z"
             style="fill:#4f4c4d;fill-opacity:1;fill-rule:nonzero;stroke:none"
             id="path204" />
        </g>
        <g
           id="g206"
           transform="translate(348.96038,194.87039)">
          <path
             d="M 0,0 2.388,0 C 4.44,0 5.686,1.01 5.686,3.363 5.686,5.719 4.44,6.729 2.388,6.729 L 0,6.729 0,0 Z m 6.257,-13.725 -4.035,9.891 -2.222,0 0,-9.891 -4.642,0 0,24.288 6.729,0 c 5.582,0 8.241,-2.691 8.241,-7.266 0,-3.027 -1.077,-5.215 -3.667,-6.19 l 4.576,-10.832 -4.98,0 z"
             style="fill:#4f4c4d;fill-opacity:1;fill-rule:nonzero;stroke:none"
             id="path208" />
        </g>
        <g
           id="g210"
           transform="translate(373.28168,198.67309)">
          <path
             d="m 0,0 c -0.773,2.286 -1.784,3.262 -3.398,3.262 -1.648,0 -2.555,-1.01 -2.555,-2.658 0,-3.666 10.36,-3.935 10.36,-11.538 0,-4.171 -2.86,-6.929 -7.737,-6.929 -3.768,0 -6.693,2.051 -7.94,6.829 l 4.577,0.974 c 0.538,-2.926 2.218,-3.969 3.597,-3.969 1.616,0 2.862,1.077 2.862,2.893 0,4.575 -10.364,4.643 -10.364,11.438 0,4.172 2.493,6.795 7.3,6.795 4.14,0 6.661,-2.455 7.47,-5.887 L 0,0 Z"
             style="fill:#4f4c4d;fill-opacity:1;fill-rule:nonzero;stroke:none"
             id="path212" />
        </g>
        <g
           id="g214"
           transform="translate(386.63718,194.73659)">
          <path
             d="m 0,0 2.489,0 c 2.287,0 3.432,1.144 3.432,3.431 0,2.288 -1.145,3.431 -3.432,3.431 L 0,6.862 0,0 Z m -4.643,-13.591 0,24.288 6.695,0 c 5.719,0 8.511,-2.691 8.511,-7.266 0,-4.576 -2.792,-7.267 -8.511,-7.267 l -2.052,0 0,-9.755 -4.643,0 z"
             style="fill:#4f4c4d;fill-opacity:1;fill-rule:nonzero;stroke:none"
             id="path216" />
        </g>
        <g
           id="g218"
           transform="translate(404.16158,190.36259)">
          <path
             d="M 0,0 4.609,0 2.355,9.823 2.289,9.823 0,0 Z m -6.626,-9.217 6.022,24.288 5.954,0 5.852,-24.288 -4.439,0 -1.178,5.113 -6.424,0 -1.314,-5.113 -4.473,0 z"
             style="fill:#4f4c4d;fill-opacity:1;fill-rule:nonzero;stroke:none"
             id="path220" />
        </g>
        <g
           id="g222"
           transform="translate(422.12648,188.34499)">
          <path
             d="m 0,0 c 0,-2.691 1.177,-3.432 3.026,-3.432 1.851,0 3.028,0.741 3.028,3.432 l 0,1.614 4.642,0 0,-1.009 c 0,-5.988 -3.161,-8.14 -7.67,-8.14 -4.507,0 -7.669,2.152 -7.669,8.14 l 0,8.679 c 0,5.987 3.162,8.141 7.669,8.141 4.509,0 7.67,-2.154 7.67,-8.141 l 0,-0.067 -4.642,0 0,0.672 C 6.054,12.58 4.877,13.32 3.026,13.32 1.177,13.32 0,12.58 0,9.889 L 0,0 Z"
             style="fill:#4f4c4d;fill-opacity:1;fill-rule:nonzero;stroke:none"
             id="path224" />
        </g>
        <g
           id="g226"
           transform="translate(436.59028,181.14579)">
          <path
             d="m 0,0 0,24.288 12.716,0 0,-4.104 -8.073,0 0,-5.584 6.155,0 0,-4.105 -6.155,0 0,-6.391 8.409,0 L 13.052,0 0,0 Z"
             style="fill:#4f4c4d;fill-opacity:1;fill-rule:nonzero;stroke:none"
             id="path228" />
        </g>
      </g>
    </g>
  </g>
</svg>
